<svg width="120" height="120" viewBox="23 20 51 51" fill="none" xmlns="http://www.w3.org/2000/svg">
<path d="M56.5886 23.3204C63.216 23.3204 68.5886 28.693 68.5886 35.3204V56.5886C68.5886 63.216 63.216 68.5885 56.5886 68.5885H35.3204C28.693 68.5885 23.3204 63.216 23.3204 56.5885V35.3204C23.3204 28.693 28.693 23.3204 35.3204 23.3204H56.5886Z" fill="#333333"/>
<circle cx="66" cy="28" r="8" fill="#EB5757"/>
<path d="M30.5149 37.8182H34.8207L38.9666 45.6484H39.1442L43.2901 37.8182H47.5959L40.9641 49.5724V56H37.1467V49.5724L30.5149 37.8182ZM52.9292 56.2663C51.5502 56.2663 50.3576 55.9734 49.3515 55.3874C48.3512 54.7956 47.5789 53.9729 47.0344 52.9194C46.4898 51.86 46.2176 50.6319 46.2176 49.2351C46.2176 47.8265 46.4898 46.5954 47.0344 45.5419C47.5789 44.4825 48.3512 43.6598 49.3515 43.0739C50.3576 42.482 51.5502 42.1861 52.9292 42.1861C54.3083 42.1861 55.4979 42.482 56.4981 43.0739C57.5043 43.6598 58.2796 44.4825 58.8241 45.5419C59.3686 46.5954 59.6409 47.8265 59.6409 49.2351C59.6409 50.6319 59.3686 51.86 58.8241 52.9194C58.2796 53.9729 57.5043 54.7956 56.4981 55.3874C55.4979 55.9734 54.3083 56.2663 52.9292 56.2663ZM52.947 53.3366C53.5744 53.3366 54.0982 53.1591 54.5184 52.804C54.9386 52.4429 55.2552 51.9517 55.4683 51.3303C55.6873 50.7088 55.7968 50.0015 55.7968 49.2085C55.7968 48.4154 55.6873 47.7081 55.4683 47.0866C55.2552 46.4652 54.9386 45.974 54.5184 45.6129C54.0982 45.2519 53.5744 45.0714 52.947 45.0714C52.3137 45.0714 51.781 45.2519 51.349 45.6129C50.9229 45.974 50.6003 46.4652 50.3813 47.0866C50.1682 47.7081 50.0617 48.4154 50.0617 49.2085C50.0617 50.0015 50.1682 50.7088 50.3813 51.3303C50.6003 51.9517 50.9229 52.4429 51.349 52.804C51.781 53.1591 52.3137 53.3366 52.947 53.3366Z" fill="#F2F2F2"/>
</svg>
